<?xml version="1.0" encoding="UTF-8" standalone="no"?>
<!DOCTYPE svg PUBLIC "-//W3C//DTD SVG 1.1//EN"
 "http://www.w3.org/Graphics/SVG/1.1/DTD/svg11.dtd">
<!-- Generated by graphviz version 2.47.0 (20210316.0004)
 -->
<!-- Title: dependencies Pages: 1 -->
<svg width="504pt" height="284pt"
 viewBox="0.00 0.00 504.00 284.00" xmlns="http://www.w3.org/2000/svg" xmlns:xlink="http://www.w3.org/1999/xlink">
<g id="graph0" class="graph" transform="scale(1 1) rotate(0) translate(4 280)">
<title>dependencies</title>
<polygon fill="white" stroke="transparent" points="-4,4 -4,-280 500,-280 500,4 -4,4"/>
<text text-anchor="start" x="227.01" y="-42.4" font-family="Times-12" font-weight="bold" font-size="14.00">Legend</text>
<polygon fill="#ffffb3" stroke="transparent" points="14,-10 14,-30 34,-30 34,-10 14,-10"/>
<text text-anchor="start" x="37.63" y="-15.4" font-family="Times-12" font-size="14.00"> &#160;Declarations</text>
<polygon fill="#8dd3c7" stroke="transparent" points="127,-10 127,-30 147,-30 147,-10 127,-10"/>
<text text-anchor="start" x="150.73" y="-15.4" font-family="Times-12" font-size="14.00"> &#160;Module</text>
<polygon fill="#80b1d3" stroke="transparent" points="213,-10 213,-30 233,-30 233,-10 213,-10"/>
<text text-anchor="start" x="236.78" y="-15.4" font-family="Times-12" font-size="14.00"> &#160;Bootstrap</text>
<polygon fill="#fdb462" stroke="transparent" points="310,-10 310,-30 330,-30 330,-10 310,-10"/>
<text text-anchor="start" x="333.67" y="-15.4" font-family="Times-12" font-size="14.00"> &#160;Providers</text>
<polygon fill="#fb8072" stroke="transparent" points="406,-10 406,-30 426,-30 426,-10 406,-10"/>
<text text-anchor="start" x="429.73" y="-15.4" font-family="Times-12" font-size="14.00"> &#160;Exports</text>
<g id="clust1" class="cluster">
<title>cluster_NotificationModule</title>
<polygon fill="none" stroke="black" stroke-dasharray="1,5" points="31,-70 31,-268 465,-268 465,-70 31,-70"/>
</g>
<g id="clust6" class="cluster">
<title>cluster_NotificationModule_providers</title>
<polygon fill="none" stroke="black" points="267,-78 267,-130 457,-130 457,-78 267,-78"/>
</g>
<g id="clust3" class="cluster">
<title>cluster_NotificationModule_imports</title>
<polygon fill="none" stroke="black" points="39,-78 39,-130 259,-130 259,-78 39,-78"/>
</g>
<g id="clust4" class="cluster">
<title>cluster_NotificationModule_exports</title>
<polygon fill="none" stroke="black" points="87,-208 87,-260 387,-260 387,-208 87,-208"/>
</g>
<!-- AuthModule -->
<g id="node1" class="node">
<title>AuthModule</title>
<polygon fill="#8dd3c7" stroke="black" points="250.55,-122 247.55,-126 226.55,-126 223.55,-122 163.45,-122 163.45,-86 250.55,-86 250.55,-122"/>
<text text-anchor="middle" x="207" y="-99.8" font-family="Times,serif" font-size="14.00">AuthModule</text>
</g>
<!-- NotificationModule -->
<g id="node3" class="node">
<title>NotificationModule</title>
<polygon fill="#8dd3c7" stroke="black" points="270.7,-187 267.7,-191 246.7,-191 243.7,-187 143.3,-187 143.3,-151 270.7,-151 270.7,-187"/>
<text text-anchor="middle" x="207" y="-164.8" font-family="Times,serif" font-size="14.00">NotificationModule</text>
</g>
<!-- AuthModule&#45;&gt;NotificationModule -->
<g id="edge1" class="edge">
<title>AuthModule&#45;&gt;NotificationModule</title>
<path fill="none" stroke="black" d="M207,-122.11C207,-122.11 207,-140.99 207,-140.99"/>
<polygon fill="black" stroke="black" points="203.5,-140.99 207,-150.99 210.5,-140.99 203.5,-140.99"/>
</g>
<!-- PrismaModule -->
<g id="node2" class="node">
<title>PrismaModule</title>
<polygon fill="#8dd3c7" stroke="black" points="145.43,-122 142.43,-126 121.43,-126 118.43,-122 46.57,-122 46.57,-86 145.43,-86 145.43,-122"/>
<text text-anchor="middle" x="96" y="-99.8" font-family="Times,serif" font-size="14.00">PrismaModule</text>
</g>
<!-- PrismaModule&#45;&gt;NotificationModule -->
<g id="edge2" class="edge">
<title>PrismaModule&#45;&gt;NotificationModule</title>
<path fill="none" stroke="black" d="M145.63,-104C150.81,-104 154.22,-104 154.22,-104 154.22,-104 154.22,-140.89 154.22,-140.89"/>
<polygon fill="black" stroke="black" points="150.72,-140.89 154.22,-150.89 157.72,-140.89 150.72,-140.89"/>
</g>
<!-- NotificationGateway  -->
<g id="node4" class="node">
<title>NotificationGateway </title>
<polygon fill="#fb8072" stroke="black" points="379.4,-252 242.6,-252 242.6,-216 379.4,-216 379.4,-252"/>
<text text-anchor="middle" x="311" y="-229.8" font-family="Times,serif" font-size="14.00">NotificationGateway </text>
</g>
<!-- NotificationModule&#45;&gt;NotificationGateway  -->
<g id="edge3" class="edge">
<title>NotificationModule&#45;&gt;NotificationGateway </title>
<path fill="none" stroke="black" stroke-dasharray="5,2" d="M256.58,-187.11C256.58,-187.11 256.58,-205.99 256.58,-205.99"/>
<polygon fill="black" stroke="black" points="253.08,-205.99 256.58,-215.99 260.08,-205.99 253.08,-205.99"/>
</g>
<!-- NotificationService  -->
<g id="node5" class="node">
<title>NotificationService </title>
<polygon fill="#fb8072" stroke="black" points="224.63,-252 95.37,-252 95.37,-216 224.63,-216 224.63,-252"/>
<text text-anchor="middle" x="160" y="-229.8" font-family="Times,serif" font-size="14.00">NotificationService </text>
</g>
<!-- NotificationModule&#45;&gt;NotificationService  -->
<g id="edge4" class="edge">
<title>NotificationModule&#45;&gt;NotificationService </title>
<path fill="none" stroke="black" stroke-dasharray="5,2" d="M183.98,-187.11C183.98,-187.11 183.98,-205.99 183.98,-205.99"/>
<polygon fill="black" stroke="black" points="180.48,-205.99 183.98,-215.99 187.48,-205.99 180.48,-205.99"/>
</g>
<!-- NotificationService -->
<g id="node6" class="node">
<title>NotificationService</title>
<ellipse fill="#fdb462" stroke="black" cx="362" cy="-104" rx="86.81" ry="18"/>
<text text-anchor="middle" x="362" y="-99.8" font-family="Times,serif" font-size="14.00">NotificationService</text>
</g>
<!-- NotificationService&#45;&gt;NotificationModule -->
<g id="edge5" class="edge">
<title>NotificationService&#45;&gt;NotificationModule</title>
<path fill="none" stroke="black" d="M275.2,-104C266.44,-104 260.69,-104 260.69,-104 260.69,-104 260.69,-140.89 260.69,-140.89"/>
<polygon fill="black" stroke="black" points="257.19,-140.89 260.69,-150.89 264.19,-140.89 257.19,-140.89"/>
</g>
</g>
</svg>
