<?xml version="1.0" encoding="UTF-8" standalone="no"?>
<!DOCTYPE svg PUBLIC "-//W3C//DTD SVG 1.1//EN"
 "http://www.w3.org/Graphics/SVG/1.1/DTD/svg11.dtd">
<!-- Generated by graphviz version 2.47.0 (20210316.0004)
 -->
<!-- Title: dependencies Pages: 1 -->
<svg width="683pt" height="211pt"
 viewBox="0.00 0.00 683.00 211.00" xmlns="http://www.w3.org/2000/svg" xmlns:xlink="http://www.w3.org/1999/xlink">
<g id="graph0" class="graph" transform="scale(1 1) rotate(0) translate(4 207)">
<title>dependencies</title>
<polygon fill="white" stroke="transparent" points="-4,4 -4,-207 679,-207 679,4 -4,4"/>
<text text-anchor="start" x="316.51" y="-42.4" font-family="Times-12" font-weight="bold" font-size="14.00">Legend</text>
<polygon fill="#ffffb3" stroke="transparent" points="103.5,-10 103.5,-30 123.5,-30 123.5,-10 103.5,-10"/>
<text text-anchor="start" x="127.13" y="-15.4" font-family="Times-12" font-size="14.00"> &#160;Declarations</text>
<polygon fill="#8dd3c7" stroke="transparent" points="216.5,-10 216.5,-30 236.5,-30 236.5,-10 216.5,-10"/>
<text text-anchor="start" x="240.23" y="-15.4" font-family="Times-12" font-size="14.00"> &#160;Module</text>
<polygon fill="#80b1d3" stroke="transparent" points="302.5,-10 302.5,-30 322.5,-30 322.5,-10 302.5,-10"/>
<text text-anchor="start" x="326.28" y="-15.4" font-family="Times-12" font-size="14.00"> &#160;Bootstrap</text>
<polygon fill="#fdb462" stroke="transparent" points="399.5,-10 399.5,-30 419.5,-30 419.5,-10 399.5,-10"/>
<text text-anchor="start" x="423.17" y="-15.4" font-family="Times-12" font-size="14.00"> &#160;Providers</text>
<polygon fill="#fb8072" stroke="transparent" points="495.5,-10 495.5,-30 515.5,-30 515.5,-10 495.5,-10"/>
<text text-anchor="start" x="519.23" y="-15.4" font-family="Times-12" font-size="14.00"> &#160;Exports</text>
<g id="clust1" class="cluster">
<title>cluster_DashboardModule</title>
<polygon fill="none" stroke="black" stroke-dasharray="1,5" points="8,-70 8,-195 667,-195 667,-70 8,-70"/>
</g>
<g id="clust6" class="cluster">
<title>cluster_DashboardModule_providers</title>
<polygon fill="none" stroke="black" points="479,-78 479,-130 659,-130 659,-78 479,-78"/>
</g>
<g id="clust3" class="cluster">
<title>cluster_DashboardModule_imports</title>
<polygon fill="none" stroke="black" points="16,-78 16,-130 471,-130 471,-78 16,-78"/>
</g>
<!-- HospitalModule -->
<g id="node1" class="node">
<title>HospitalModule</title>
<polygon fill="#8dd3c7" stroke="black" points="463.49,-122 460.49,-126 439.49,-126 436.49,-122 356.51,-122 356.51,-86 463.49,-86 463.49,-122"/>
<text text-anchor="middle" x="410" y="-99.8" font-family="Times,serif" font-size="14.00">HospitalModule</text>
</g>
<!-- DashboardModule -->
<g id="node5" class="node">
<title>DashboardModule</title>
<polygon fill="#8dd3c7" stroke="black" points="349.19,-187 346.19,-191 325.19,-191 322.19,-187 228.81,-187 228.81,-151 349.19,-151 349.19,-187"/>
<text text-anchor="middle" x="289" y="-164.8" font-family="Times,serif" font-size="14.00">DashboardModule</text>
</g>
<!-- HospitalModule&#45;&gt;DashboardModule -->
<g id="edge1" class="edge">
<title>HospitalModule&#45;&gt;DashboardModule</title>
<path fill="none" stroke="black" d="M356.45,-104C348.9,-104 343.66,-104 343.66,-104 343.66,-104 343.66,-140.89 343.66,-140.89"/>
<polygon fill="black" stroke="black" points="340.16,-140.89 343.66,-150.89 347.16,-140.89 340.16,-140.89"/>
</g>
<!-- PrismaModule -->
<g id="node2" class="node">
<title>PrismaModule</title>
<polygon fill="#8dd3c7" stroke="black" points="338.43,-122 335.43,-126 314.43,-126 311.43,-122 239.57,-122 239.57,-86 338.43,-86 338.43,-122"/>
<text text-anchor="middle" x="289" y="-99.8" font-family="Times,serif" font-size="14.00">PrismaModule</text>
</g>
<!-- PrismaModule&#45;&gt;DashboardModule -->
<g id="edge2" class="edge">
<title>PrismaModule&#45;&gt;DashboardModule</title>
<path fill="none" stroke="black" d="M289,-122.11C289,-122.11 289,-140.99 289,-140.99"/>
<polygon fill="black" stroke="black" points="285.5,-140.99 289,-150.99 292.5,-140.99 285.5,-140.99"/>
</g>
<!-- RescueModule -->
<g id="node3" class="node">
<title>RescueModule</title>
<polygon fill="#8dd3c7" stroke="black" points="221.97,-122 218.97,-126 197.97,-126 194.97,-122 122.03,-122 122.03,-86 221.97,-86 221.97,-122"/>
<text text-anchor="middle" x="172" y="-99.8" font-family="Times,serif" font-size="14.00">RescueModule</text>
</g>
<!-- RescueModule&#45;&gt;DashboardModule -->
<g id="edge3" class="edge">
<title>RescueModule&#45;&gt;DashboardModule</title>
<path fill="none" stroke="black" d="M222.03,-104C229.27,-104 234.34,-104 234.34,-104 234.34,-104 234.34,-140.89 234.34,-140.89"/>
<polygon fill="black" stroke="black" points="230.84,-140.89 234.34,-150.89 237.84,-140.89 230.84,-140.89"/>
</g>
<!-- SosModule -->
<g id="node4" class="node">
<title>SosModule</title>
<polygon fill="#8dd3c7" stroke="black" points="103.78,-122 100.78,-126 79.78,-126 76.78,-122 24.22,-122 24.22,-86 103.78,-86 103.78,-122"/>
<text text-anchor="middle" x="64" y="-99.8" font-family="Times,serif" font-size="14.00">SosModule</text>
</g>
<!-- SosModule&#45;&gt;DashboardModule -->
<g id="edge4" class="edge">
<title>SosModule&#45;&gt;DashboardModule</title>
<path fill="none" stroke="black" d="M64,-122.11C64,-141.34 64,-169 64,-169 64,-169 218.7,-169 218.7,-169"/>
<polygon fill="black" stroke="black" points="218.7,-172.5 228.7,-169 218.7,-165.5 218.7,-172.5"/>
</g>
<!-- DashboardService -->
<g id="node6" class="node">
<title>DashboardService</title>
<ellipse fill="#fdb462" stroke="black" cx="569" cy="-104" rx="81.64" ry="18"/>
<text text-anchor="middle" x="569" y="-99.8" font-family="Times,serif" font-size="14.00">DashboardService</text>
</g>
<!-- DashboardService&#45;&gt;DashboardModule -->
<g id="edge5" class="edge">
<title>DashboardService&#45;&gt;DashboardModule</title>
<path fill="none" stroke="black" d="M569,-122.11C569,-141.34 569,-169 569,-169 569,-169 359.41,-169 359.41,-169"/>
<polygon fill="black" stroke="black" points="359.41,-165.5 349.41,-169 359.41,-172.5 359.41,-165.5"/>
</g>
</g>
</svg>
