<?xml version="1.0" encoding="UTF-8" standalone="no"?>
<!DOCTYPE svg PUBLIC "-//W3C//DTD SVG 1.1//EN"
 "http://www.w3.org/Graphics/SVG/1.1/DTD/svg11.dtd">
<!-- Generated by graphviz version 2.47.0 (20210316.0004)
 -->
<!-- Title: dependencies Pages: 1 -->
<svg width="504pt" height="284pt"
 viewBox="0.00 0.00 504.00 284.00" xmlns="http://www.w3.org/2000/svg" xmlns:xlink="http://www.w3.org/1999/xlink">
<g id="graph0" class="graph" transform="scale(1 1) rotate(0) translate(4 280)">
<title>dependencies</title>
<polygon fill="white" stroke="transparent" points="-4,4 -4,-280 500,-280 500,4 -4,4"/>
<text text-anchor="start" x="227.01" y="-42.4" font-family="Times-12" font-weight="bold" font-size="14.00">Legend</text>
<polygon fill="#ffffb3" stroke="transparent" points="14,-10 14,-30 34,-30 34,-10 14,-10"/>
<text text-anchor="start" x="37.63" y="-15.4" font-family="Times-12" font-size="14.00"> &#160;Declarations</text>
<polygon fill="#8dd3c7" stroke="transparent" points="127,-10 127,-30 147,-30 147,-10 127,-10"/>
<text text-anchor="start" x="150.73" y="-15.4" font-family="Times-12" font-size="14.00"> &#160;Module</text>
<polygon fill="#80b1d3" stroke="transparent" points="213,-10 213,-30 233,-30 233,-10 213,-10"/>
<text text-anchor="start" x="236.78" y="-15.4" font-family="Times-12" font-size="14.00"> &#160;Bootstrap</text>
<polygon fill="#fdb462" stroke="transparent" points="310,-10 310,-30 330,-30 330,-10 310,-10"/>
<text text-anchor="start" x="333.67" y="-15.4" font-family="Times-12" font-size="14.00"> &#160;Providers</text>
<polygon fill="#fb8072" stroke="transparent" points="406,-10 406,-30 426,-30 426,-10 406,-10"/>
<text text-anchor="start" x="429.73" y="-15.4" font-family="Times-12" font-size="14.00"> &#160;Exports</text>
<g id="clust1" class="cluster">
<title>cluster_RescueModule</title>
<polygon fill="none" stroke="black" stroke-dasharray="1,5" points="30,-70 30,-268 466,-268 466,-70 30,-70"/>
</g>
<g id="clust4" class="cluster">
<title>cluster_RescueModule_exports</title>
<polygon fill="none" stroke="black" points="196,-208 196,-260 314,-260 314,-208 196,-208"/>
</g>
<g id="clust3" class="cluster">
<title>cluster_RescueModule_imports</title>
<polygon fill="none" stroke="black" points="198,-78 198,-130 458,-130 458,-78 198,-78"/>
</g>
<g id="clust6" class="cluster">
<title>cluster_RescueModule_providers</title>
<polygon fill="none" stroke="black" points="38,-78 38,-130 190,-130 190,-78 38,-78"/>
</g>
<!-- NotificationModule -->
<g id="node1" class="node">
<title>NotificationModule</title>
<polygon fill="#8dd3c7" stroke="black" points="449.7,-122 446.7,-126 425.7,-126 422.7,-122 322.3,-122 322.3,-86 449.7,-86 449.7,-122"/>
<text text-anchor="middle" x="386" y="-99.8" font-family="Times,serif" font-size="14.00">NotificationModule</text>
</g>
<!-- RescueModule -->
<g id="node3" class="node">
<title>RescueModule</title>
<polygon fill="#8dd3c7" stroke="black" points="304.97,-187 301.97,-191 280.97,-191 277.97,-187 205.03,-187 205.03,-151 304.97,-151 304.97,-187"/>
<text text-anchor="middle" x="255" y="-164.8" font-family="Times,serif" font-size="14.00">RescueModule</text>
</g>
<!-- NotificationModule&#45;&gt;RescueModule -->
<g id="edge1" class="edge">
<title>NotificationModule&#45;&gt;RescueModule</title>
<path fill="none" stroke="black" d="M386,-122.11C386,-141.34 386,-169 386,-169 386,-169 315.27,-169 315.27,-169"/>
<polygon fill="black" stroke="black" points="315.27,-165.5 305.27,-169 315.27,-172.5 315.27,-165.5"/>
</g>
<!-- PrismaModule -->
<g id="node2" class="node">
<title>PrismaModule</title>
<polygon fill="#8dd3c7" stroke="black" points="304.43,-122 301.43,-126 280.43,-126 277.43,-122 205.57,-122 205.57,-86 304.43,-86 304.43,-122"/>
<text text-anchor="middle" x="255" y="-99.8" font-family="Times,serif" font-size="14.00">PrismaModule</text>
</g>
<!-- PrismaModule&#45;&gt;RescueModule -->
<g id="edge2" class="edge">
<title>PrismaModule&#45;&gt;RescueModule</title>
<path fill="none" stroke="black" d="M255,-122.11C255,-122.11 255,-140.99 255,-140.99"/>
<polygon fill="black" stroke="black" points="251.5,-140.99 255,-150.99 258.5,-140.99 251.5,-140.99"/>
</g>
<!-- RescueService  -->
<g id="node4" class="node">
<title>RescueService </title>
<polygon fill="#fb8072" stroke="black" points="305.9,-252 204.1,-252 204.1,-216 305.9,-216 305.9,-252"/>
<text text-anchor="middle" x="255" y="-229.8" font-family="Times,serif" font-size="14.00">RescueService </text>
</g>
<!-- RescueModule&#45;&gt;RescueService  -->
<g id="edge3" class="edge">
<title>RescueModule&#45;&gt;RescueService </title>
<path fill="none" stroke="black" stroke-dasharray="5,2" d="M255,-187.11C255,-187.11 255,-205.99 255,-205.99"/>
<polygon fill="black" stroke="black" points="251.5,-205.99 255,-215.99 258.5,-205.99 251.5,-205.99"/>
</g>
<!-- RescueService -->
<g id="node5" class="node">
<title>RescueService</title>
<ellipse fill="#fdb462" stroke="black" cx="114" cy="-104" rx="67.75" ry="18"/>
<text text-anchor="middle" x="114" y="-99.8" font-family="Times,serif" font-size="14.00">RescueService</text>
</g>
<!-- RescueService&#45;&gt;RescueModule -->
<g id="edge4" class="edge">
<title>RescueService&#45;&gt;RescueModule</title>
<path fill="none" stroke="black" d="M114,-122.11C114,-141.34 114,-169 114,-169 114,-169 194.89,-169 194.89,-169"/>
<polygon fill="black" stroke="black" points="194.89,-172.5 204.89,-169 194.89,-165.5 194.89,-172.5"/>
</g>
</g>
</svg>
