<?xml version="1.0" encoding="UTF-8" standalone="no"?>
<!DOCTYPE svg PUBLIC "-//W3C//DTD SVG 1.1//EN"
 "http://www.w3.org/Graphics/SVG/1.1/DTD/svg11.dtd">
<!-- Generated by graphviz version 2.47.0 (20210316.0004)
 -->
<!-- Title: dependencies Pages: 1 -->
<svg width="1257pt" height="211pt"
 viewBox="0.00 0.00 1257.00 211.00" xmlns="http://www.w3.org/2000/svg" xmlns:xlink="http://www.w3.org/1999/xlink">
<g id="graph0" class="graph" transform="scale(1 1) rotate(0) translate(4 207)">
<title>dependencies</title>
<polygon fill="white" stroke="transparent" points="-4,4 -4,-207 1253,-207 1253,4 -4,4"/>
<text text-anchor="start" x="603.51" y="-42.4" font-family="Times-12" font-weight="bold" font-size="14.00">Legend</text>
<polygon fill="#ffffb3" stroke="transparent" points="390.5,-10 390.5,-30 410.5,-30 410.5,-10 390.5,-10"/>
<text text-anchor="start" x="414.13" y="-15.4" font-family="Times-12" font-size="14.00"> &#160;Declarations</text>
<polygon fill="#8dd3c7" stroke="transparent" points="503.5,-10 503.5,-30 523.5,-30 523.5,-10 503.5,-10"/>
<text text-anchor="start" x="527.23" y="-15.4" font-family="Times-12" font-size="14.00"> &#160;Module</text>
<polygon fill="#80b1d3" stroke="transparent" points="589.5,-10 589.5,-30 609.5,-30 609.5,-10 589.5,-10"/>
<text text-anchor="start" x="613.28" y="-15.4" font-family="Times-12" font-size="14.00"> &#160;Bootstrap</text>
<polygon fill="#fdb462" stroke="transparent" points="686.5,-10 686.5,-30 706.5,-30 706.5,-10 686.5,-10"/>
<text text-anchor="start" x="710.17" y="-15.4" font-family="Times-12" font-size="14.00"> &#160;Providers</text>
<polygon fill="#fb8072" stroke="transparent" points="782.5,-10 782.5,-30 802.5,-30 802.5,-10 782.5,-10"/>
<text text-anchor="start" x="806.23" y="-15.4" font-family="Times-12" font-size="14.00"> &#160;Exports</text>
<g id="clust1" class="cluster">
<title>cluster_AppModule</title>
<polygon fill="none" stroke="black" stroke-dasharray="1,5" points="8,-70 8,-195 1241,-195 1241,-70 8,-70"/>
</g>
<g id="clust3" class="cluster">
<title>cluster_AppModule_imports</title>
<polygon fill="none" stroke="black" points="154,-78 154,-130 1233,-130 1233,-78 154,-78"/>
</g>
<g id="clust6" class="cluster">
<title>cluster_AppModule_providers</title>
<polygon fill="none" stroke="black" points="16,-78 16,-130 146,-130 146,-78 16,-78"/>
</g>
<!-- AuthModule -->
<g id="node1" class="node">
<title>AuthModule</title>
<polygon fill="#8dd3c7" stroke="black" points="1224.55,-122 1221.55,-126 1200.55,-126 1197.55,-122 1137.45,-122 1137.45,-86 1224.55,-86 1224.55,-122"/>
<text text-anchor="middle" x="1181" y="-99.8" font-family="Times,serif" font-size="14.00">AuthModule</text>
</g>
<!-- AppModule -->
<g id="node10" class="node">
<title>AppModule</title>
<polygon fill="#8dd3c7" stroke="black" points="643.66,-187 640.66,-191 619.66,-191 616.66,-187 560.34,-187 560.34,-151 643.66,-151 643.66,-187"/>
<text text-anchor="middle" x="602" y="-164.8" font-family="Times,serif" font-size="14.00">AppModule</text>
</g>
<!-- AuthModule&#45;&gt;AppModule -->
<g id="edge1" class="edge">
<title>AuthModule&#45;&gt;AppModule</title>
<path fill="none" stroke="black" d="M1181,-122.01C1181,-144.49 1181,-180 1181,-180 1181,-180 654.11,-180 654.11,-180"/>
<polygon fill="black" stroke="black" points="654.11,-176.5 644.11,-180 654.11,-183.5 654.11,-176.5"/>
</g>
<!-- DashboardModule -->
<g id="node2" class="node">
<title>DashboardModule</title>
<polygon fill="#8dd3c7" stroke="black" points="1119.19,-122 1116.19,-126 1095.19,-126 1092.19,-122 998.81,-122 998.81,-86 1119.19,-86 1119.19,-122"/>
<text text-anchor="middle" x="1059" y="-99.8" font-family="Times,serif" font-size="14.00">DashboardModule</text>
</g>
<!-- DashboardModule&#45;&gt;AppModule -->
<g id="edge2" class="edge">
<title>DashboardModule&#45;&gt;AppModule</title>
<path fill="none" stroke="black" d="M1059,-122.13C1059,-142.57 1059,-173 1059,-173 1059,-173 653.77,-173 653.77,-173"/>
<polygon fill="black" stroke="black" points="653.77,-169.5 643.77,-173 653.77,-176.5 653.77,-169.5"/>
</g>
<!-- HospitalModule -->
<g id="node3" class="node">
<title>HospitalModule</title>
<polygon fill="#8dd3c7" stroke="black" points="980.49,-122 977.49,-126 956.49,-126 953.49,-122 873.51,-122 873.51,-86 980.49,-86 980.49,-122"/>
<text text-anchor="middle" x="927" y="-99.8" font-family="Times,serif" font-size="14.00">HospitalModule</text>
</g>
<!-- HospitalModule&#45;&gt;AppModule -->
<g id="edge3" class="edge">
<title>HospitalModule&#45;&gt;AppModule</title>
<path fill="none" stroke="black" d="M927,-122.27C927,-140.56 927,-166 927,-166 927,-166 653.82,-166 653.82,-166"/>
<polygon fill="black" stroke="black" points="653.82,-162.5 643.82,-166 653.82,-169.5 653.82,-162.5"/>
</g>
<!-- NotificationModule -->
<g id="node4" class="node">
<title>NotificationModule</title>
<polygon fill="#8dd3c7" stroke="black" points="855.7,-122 852.7,-126 831.7,-126 828.7,-122 728.3,-122 728.3,-86 855.7,-86 855.7,-122"/>
<text text-anchor="middle" x="792" y="-99.8" font-family="Times,serif" font-size="14.00">NotificationModule</text>
</g>
<!-- NotificationModule&#45;&gt;AppModule -->
<g id="edge4" class="edge">
<title>NotificationModule&#45;&gt;AppModule</title>
<path fill="none" stroke="black" d="M792,-122.01C792,-138.05 792,-159 792,-159 792,-159 653.7,-159 653.7,-159"/>
<polygon fill="black" stroke="black" points="653.7,-155.5 643.7,-159 653.7,-162.5 653.7,-155.5"/>
</g>
<!-- PrismaModule -->
<g id="node5" class="node">
<title>PrismaModule</title>
<polygon fill="#8dd3c7" stroke="black" points="710.43,-122 707.43,-126 686.43,-126 683.43,-122 611.57,-122 611.57,-86 710.43,-86 710.43,-122"/>
<text text-anchor="middle" x="661" y="-99.8" font-family="Times,serif" font-size="14.00">PrismaModule</text>
</g>
<!-- PrismaModule&#45;&gt;AppModule -->
<g id="edge5" class="edge">
<title>PrismaModule&#45;&gt;AppModule</title>
<path fill="none" stroke="black" d="M627.81,-122.11C627.81,-122.11 627.81,-140.99 627.81,-140.99"/>
<polygon fill="black" stroke="black" points="624.31,-140.99 627.81,-150.99 631.31,-140.99 624.31,-140.99"/>
</g>
<!-- RescueModule -->
<g id="node6" class="node">
<title>RescueModule</title>
<polygon fill="#8dd3c7" stroke="black" points="593.97,-122 590.97,-126 569.97,-126 566.97,-122 494.03,-122 494.03,-86 593.97,-86 593.97,-122"/>
<text text-anchor="middle" x="544" y="-99.8" font-family="Times,serif" font-size="14.00">RescueModule</text>
</g>
<!-- RescueModule&#45;&gt;AppModule -->
<g id="edge6" class="edge">
<title>RescueModule&#45;&gt;AppModule</title>
<path fill="none" stroke="black" d="M577.08,-122.11C577.08,-122.11 577.08,-140.99 577.08,-140.99"/>
<polygon fill="black" stroke="black" points="573.58,-140.99 577.08,-150.99 580.58,-140.99 573.58,-140.99"/>
</g>
<!-- SosModule -->
<g id="node7" class="node">
<title>SosModule</title>
<polygon fill="#8dd3c7" stroke="black" points="475.78,-122 472.78,-126 451.78,-126 448.78,-122 396.22,-122 396.22,-86 475.78,-86 475.78,-122"/>
<text text-anchor="middle" x="436" y="-99.8" font-family="Times,serif" font-size="14.00">SosModule</text>
</g>
<!-- SosModule&#45;&gt;AppModule -->
<g id="edge7" class="edge">
<title>SosModule&#45;&gt;AppModule</title>
<path fill="none" stroke="black" d="M436,-122.01C436,-138.05 436,-159 436,-159 436,-159 550.11,-159 550.11,-159"/>
<polygon fill="black" stroke="black" points="550.11,-162.5 560.11,-159 550.11,-155.5 550.11,-162.5"/>
</g>
<!-- SupabaseModule -->
<g id="node8" class="node">
<title>SupabaseModule</title>
<polygon fill="#8dd3c7" stroke="black" points="378.42,-122 375.42,-126 354.42,-126 351.42,-122 265.58,-122 265.58,-86 378.42,-86 378.42,-122"/>
<text text-anchor="middle" x="322" y="-99.8" font-family="Times,serif" font-size="14.00">SupabaseModule</text>
</g>
<!-- SupabaseModule&#45;&gt;AppModule -->
<g id="edge8" class="edge">
<title>SupabaseModule&#45;&gt;AppModule</title>
<path fill="none" stroke="black" d="M322,-122.27C322,-140.56 322,-166 322,-166 322,-166 550.08,-166 550.08,-166"/>
<polygon fill="black" stroke="black" points="550.08,-169.5 560.08,-166 550.08,-162.5 550.08,-169.5"/>
</g>
<!-- UserModule -->
<g id="node9" class="node">
<title>UserModule</title>
<polygon fill="#8dd3c7" stroke="black" points="247.98,-122 244.98,-126 223.98,-126 220.98,-122 162.02,-122 162.02,-86 247.98,-86 247.98,-122"/>
<text text-anchor="middle" x="205" y="-99.8" font-family="Times,serif" font-size="14.00">UserModule</text>
</g>
<!-- UserModule&#45;&gt;AppModule -->
<g id="edge9" class="edge">
<title>UserModule&#45;&gt;AppModule</title>
<path fill="none" stroke="black" d="M205,-122.13C205,-142.57 205,-173 205,-173 205,-173 550.26,-173 550.26,-173"/>
<polygon fill="black" stroke="black" points="550.26,-176.5 560.26,-173 550.26,-169.5 550.26,-176.5"/>
</g>
<!-- AppService -->
<g id="node11" class="node">
<title>AppService</title>
<ellipse fill="#fdb462" stroke="black" cx="81" cy="-104" rx="56.74" ry="18"/>
<text text-anchor="middle" x="81" y="-99.8" font-family="Times,serif" font-size="14.00">AppService</text>
</g>
<!-- AppService&#45;&gt;AppModule -->
<g id="edge10" class="edge">
<title>AppService&#45;&gt;AppModule</title>
<path fill="none" stroke="black" d="M81,-122.01C81,-144.49 81,-180 81,-180 81,-180 550.25,-180 550.25,-180"/>
<polygon fill="black" stroke="black" points="550.25,-183.5 560.25,-180 550.25,-176.5 550.25,-183.5"/>
</g>
</g>
</svg>
