<?xml version="1.0" encoding="UTF-8" standalone="no"?>
<!DOCTYPE svg PUBLIC "-//W3C//DTD SVG 1.1//EN"
 "http://www.w3.org/Graphics/SVG/1.1/DTD/svg11.dtd">
<!-- Generated by graphviz version 2.47.0 (20210316.0004)
 -->
<!-- Title: dependencies Pages: 1 -->
<svg width="504pt" height="284pt"
 viewBox="0.00 0.00 504.00 284.00" xmlns="http://www.w3.org/2000/svg" xmlns:xlink="http://www.w3.org/1999/xlink">
<g id="graph0" class="graph" transform="scale(1 1) rotate(0) translate(4 280)">
<title>dependencies</title>
<polygon fill="white" stroke="transparent" points="-4,4 -4,-280 500,-280 500,4 -4,4"/>
<text text-anchor="start" x="227.01" y="-42.4" font-family="Times-12" font-weight="bold" font-size="14.00">Legend</text>
<polygon fill="#ffffb3" stroke="transparent" points="14,-10 14,-30 34,-30 34,-10 14,-10"/>
<text text-anchor="start" x="37.63" y="-15.4" font-family="Times-12" font-size="14.00"> &#160;Declarations</text>
<polygon fill="#8dd3c7" stroke="transparent" points="127,-10 127,-30 147,-30 147,-10 127,-10"/>
<text text-anchor="start" x="150.73" y="-15.4" font-family="Times-12" font-size="14.00"> &#160;Module</text>
<polygon fill="#80b1d3" stroke="transparent" points="213,-10 213,-30 233,-30 233,-10 213,-10"/>
<text text-anchor="start" x="236.78" y="-15.4" font-family="Times-12" font-size="14.00"> &#160;Bootstrap</text>
<polygon fill="#fdb462" stroke="transparent" points="310,-10 310,-30 330,-30 330,-10 310,-10"/>
<text text-anchor="start" x="333.67" y="-15.4" font-family="Times-12" font-size="14.00"> &#160;Providers</text>
<polygon fill="#fb8072" stroke="transparent" points="406,-10 406,-30 426,-30 426,-10 406,-10"/>
<text text-anchor="start" x="429.73" y="-15.4" font-family="Times-12" font-size="14.00"> &#160;Exports</text>
<g id="clust1" class="cluster">
<title>cluster_HospitalModule</title>
<polygon fill="none" stroke="black" stroke-dasharray="1,5" points="25,-70 25,-268 471,-268 471,-70 25,-70"/>
</g>
<g id="clust4" class="cluster">
<title>cluster_HospitalModule_exports</title>
<polygon fill="none" stroke="black" points="198,-208 198,-260 322,-260 322,-208 198,-208"/>
</g>
<g id="clust3" class="cluster">
<title>cluster_HospitalModule_imports</title>
<polygon fill="none" stroke="black" points="203,-78 203,-130 463,-130 463,-78 203,-78"/>
</g>
<g id="clust6" class="cluster">
<title>cluster_HospitalModule_providers</title>
<polygon fill="none" stroke="black" points="33,-78 33,-130 195,-130 195,-78 33,-78"/>
</g>
<!-- NotificationModule -->
<g id="node1" class="node">
<title>NotificationModule</title>
<polygon fill="#8dd3c7" stroke="black" points="454.7,-122 451.7,-126 430.7,-126 427.7,-122 327.3,-122 327.3,-86 454.7,-86 454.7,-122"/>
<text text-anchor="middle" x="391" y="-99.8" font-family="Times,serif" font-size="14.00">NotificationModule</text>
</g>
<!-- HospitalModule -->
<g id="node3" class="node">
<title>HospitalModule</title>
<polygon fill="#8dd3c7" stroke="black" points="313.49,-187 310.49,-191 289.49,-191 286.49,-187 206.51,-187 206.51,-151 313.49,-151 313.49,-187"/>
<text text-anchor="middle" x="260" y="-164.8" font-family="Times,serif" font-size="14.00">HospitalModule</text>
</g>
<!-- NotificationModule&#45;&gt;HospitalModule -->
<g id="edge1" class="edge">
<title>NotificationModule&#45;&gt;HospitalModule</title>
<path fill="none" stroke="black" d="M391,-122.11C391,-141.34 391,-169 391,-169 391,-169 323.66,-169 323.66,-169"/>
<polygon fill="black" stroke="black" points="323.66,-165.5 313.66,-169 323.66,-172.5 323.66,-165.5"/>
</g>
<!-- PrismaModule -->
<g id="node2" class="node">
<title>PrismaModule</title>
<polygon fill="#8dd3c7" stroke="black" points="309.43,-122 306.43,-126 285.43,-126 282.43,-122 210.57,-122 210.57,-86 309.43,-86 309.43,-122"/>
<text text-anchor="middle" x="260" y="-99.8" font-family="Times,serif" font-size="14.00">PrismaModule</text>
</g>
<!-- PrismaModule&#45;&gt;HospitalModule -->
<g id="edge2" class="edge">
<title>PrismaModule&#45;&gt;HospitalModule</title>
<path fill="none" stroke="black" d="M260,-122.11C260,-122.11 260,-140.99 260,-140.99"/>
<polygon fill="black" stroke="black" points="256.5,-140.99 260,-150.99 263.5,-140.99 256.5,-140.99"/>
</g>
<!-- HospitalService  -->
<g id="node4" class="node">
<title>HospitalService </title>
<polygon fill="#fb8072" stroke="black" points="314.42,-252 205.58,-252 205.58,-216 314.42,-216 314.42,-252"/>
<text text-anchor="middle" x="260" y="-229.8" font-family="Times,serif" font-size="14.00">HospitalService </text>
</g>
<!-- HospitalModule&#45;&gt;HospitalService  -->
<g id="edge3" class="edge">
<title>HospitalModule&#45;&gt;HospitalService </title>
<path fill="none" stroke="black" stroke-dasharray="5,2" d="M260,-187.11C260,-187.11 260,-205.99 260,-205.99"/>
<polygon fill="black" stroke="black" points="256.5,-205.99 260,-215.99 263.5,-205.99 256.5,-205.99"/>
</g>
<!-- HospitalService -->
<g id="node5" class="node">
<title>HospitalService</title>
<ellipse fill="#fdb462" stroke="black" cx="114" cy="-104" rx="72.93" ry="18"/>
<text text-anchor="middle" x="114" y="-99.8" font-family="Times,serif" font-size="14.00">HospitalService</text>
</g>
<!-- HospitalService&#45;&gt;HospitalModule -->
<g id="edge4" class="edge">
<title>HospitalService&#45;&gt;HospitalModule</title>
<path fill="none" stroke="black" d="M114,-122.11C114,-141.34 114,-169 114,-169 114,-169 196.46,-169 196.46,-169"/>
<polygon fill="black" stroke="black" points="196.46,-172.5 206.46,-169 196.46,-165.5 196.46,-172.5"/>
</g>
</g>
</svg>
