<?xml version="1.0" encoding="UTF-8" standalone="no"?>
<!DOCTYPE svg PUBLIC "-//W3C//DTD SVG 1.1//EN"
 "http://www.w3.org/Graphics/SVG/1.1/DTD/svg11.dtd">
<!-- Generated by graphviz version 2.47.0 (20210316.0004)
 -->
<!-- Title: dependencies Pages: 1 -->
<svg width="1686pt" height="580pt"
 viewBox="0.00 0.00 1686.00 580.00" xmlns="http://www.w3.org/2000/svg" xmlns:xlink="http://www.w3.org/1999/xlink">
<g id="graph0" class="graph" transform="scale(1 1) rotate(0) translate(4 576)">
<title>dependencies</title>
<polygon fill="white" stroke="transparent" points="-4,4 -4,-576 1682,-576 1682,4 -4,4"/>
<text text-anchor="start" x="818.01" y="-42.4" font-family="Times-12" font-weight="bold" font-size="14.00">Legend</text>
<polygon fill="#ffffb3" stroke="transparent" points="605,-10 605,-30 625,-30 625,-10 605,-10"/>
<text text-anchor="start" x="628.63" y="-15.4" font-family="Times-12" font-size="14.00"> &#160;Declarations</text>
<polygon fill="#8dd3c7" stroke="transparent" points="718,-10 718,-30 738,-30 738,-10 718,-10"/>
<text text-anchor="start" x="741.73" y="-15.4" font-family="Times-12" font-size="14.00"> &#160;Module</text>
<polygon fill="#80b1d3" stroke="transparent" points="804,-10 804,-30 824,-30 824,-10 804,-10"/>
<text text-anchor="start" x="827.78" y="-15.4" font-family="Times-12" font-size="14.00"> &#160;Bootstrap</text>
<polygon fill="#fdb462" stroke="transparent" points="901,-10 901,-30 921,-30 921,-10 901,-10"/>
<text text-anchor="start" x="924.67" y="-15.4" font-family="Times-12" font-size="14.00"> &#160;Providers</text>
<polygon fill="#fb8072" stroke="transparent" points="997,-10 997,-30 1017,-30 1017,-10 997,-10"/>
<text text-anchor="start" x="1020.73" y="-15.4" font-family="Times-12" font-size="14.00"> &#160;Exports</text>
<g id="clust1" class="cluster">
<title>cluster_AppModule</title>
<polygon fill="none" stroke="black" stroke-dasharray="1,5" points="212,-70 212,-564 796,-564 796,-70 212,-70"/>
</g>
<g id="clust3" class="cluster">
<title>cluster_AppModule_imports</title>
<polygon fill="none" stroke="black" points="358,-78 358,-499 716,-499 716,-78 358,-78"/>
</g>
<g id="clust6" class="cluster">
<title>cluster_AppModule_providers</title>
<polygon fill="none" stroke="black" points="220,-447 220,-499 350,-499 350,-447 220,-447"/>
</g>
<g id="clust7" class="cluster">
<title>cluster_AuthModule</title>
<polygon fill="none" stroke="black" stroke-dasharray="1,5" points="804,-287 804,-355 1304,-355 1304,-287 804,-287"/>
</g>
<g id="clust10" class="cluster">
<title>cluster_AuthModule_exports</title>
<polygon fill="none" stroke="black" points="1086,-295 1086,-347 1296,-347 1296,-295 1086,-295"/>
</g>
<g id="clust12" class="cluster">
<title>cluster_AuthModule_providers</title>
<polygon fill="none" stroke="black" points="812,-295 812,-347 1078,-347 1078,-295 812,-295"/>
</g>
<g id="clust13" class="cluster">
<title>cluster_DashboardModule</title>
<polygon fill="none" stroke="black" stroke-dasharray="1,5" points="8,-363 8,-431 204,-431 204,-363 8,-363"/>
</g>
<g id="clust18" class="cluster">
<title>cluster_DashboardModule_providers</title>
<polygon fill="none" stroke="black" points="16,-371 16,-423 196,-423 196,-371 16,-371"/>
</g>
<g id="clust19" class="cluster">
<title>cluster_HospitalModule</title>
<polygon fill="none" stroke="black" stroke-dasharray="1,5" points="804,-439 804,-507 1114,-507 1114,-439 804,-439"/>
</g>
<g id="clust22" class="cluster">
<title>cluster_HospitalModule_exports</title>
<polygon fill="none" stroke="black" points="982,-447 982,-499 1106,-499 1106,-447 982,-447"/>
</g>
<g id="clust24" class="cluster">
<title>cluster_HospitalModule_providers</title>
<polygon fill="none" stroke="black" points="812,-447 812,-499 974,-499 974,-447 812,-447"/>
</g>
<g id="clust25" class="cluster">
<title>cluster_NotificationModule</title>
<polygon fill="none" stroke="black" stroke-dasharray="1,5" points="804,-363 804,-431 1318,-431 1318,-363 804,-363"/>
</g>
<g id="clust28" class="cluster">
<title>cluster_NotificationModule_exports</title>
<polygon fill="none" stroke="black" points="1010,-371 1010,-423 1310,-423 1310,-371 1010,-371"/>
</g>
<g id="clust30" class="cluster">
<title>cluster_NotificationModule_providers</title>
<polygon fill="none" stroke="black" points="812,-371 812,-423 1002,-423 1002,-371 812,-371"/>
</g>
<g id="clust31" class="cluster">
<title>cluster_PrismaModule</title>
<polygon fill="none" stroke="black" stroke-dasharray="1,5" points="804,-135 804,-203 1094,-203 1094,-135 804,-135"/>
</g>
<g id="clust34" class="cluster">
<title>cluster_PrismaModule_exports</title>
<polygon fill="none" stroke="black" points="970,-143 970,-195 1086,-195 1086,-143 970,-143"/>
</g>
<g id="clust36" class="cluster">
<title>cluster_PrismaModule_providers</title>
<polygon fill="none" stroke="black" points="812,-143 812,-195 962,-195 962,-143 812,-143"/>
</g>
<g id="clust37" class="cluster">
<title>cluster_RescueModule</title>
<polygon fill="none" stroke="black" stroke-dasharray="1,5" points="1122,-439 1122,-507 1416,-507 1416,-439 1122,-439"/>
</g>
<g id="clust40" class="cluster">
<title>cluster_RescueModule_exports</title>
<polygon fill="none" stroke="black" points="1290,-447 1290,-499 1408,-499 1408,-447 1290,-447"/>
</g>
<g id="clust42" class="cluster">
<title>cluster_RescueModule_providers</title>
<polygon fill="none" stroke="black" points="1130,-447 1130,-499 1282,-499 1282,-447 1130,-447"/>
</g>
<g id="clust43" class="cluster">
<title>cluster_SosModule</title>
<polygon fill="none" stroke="black" stroke-dasharray="1,5" points="1424,-439 1424,-507 1670,-507 1670,-439 1424,-439"/>
</g>
<g id="clust46" class="cluster">
<title>cluster_SosModule_exports</title>
<polygon fill="none" stroke="black" points="1564,-447 1564,-499 1662,-499 1662,-447 1564,-447"/>
</g>
<g id="clust48" class="cluster">
<title>cluster_SosModule_providers</title>
<polygon fill="none" stroke="black" points="1432,-447 1432,-499 1556,-499 1556,-447 1432,-447"/>
</g>
<g id="clust49" class="cluster">
<title>cluster_SupabaseModule</title>
<polygon fill="none" stroke="black" stroke-dasharray="1,5" points="1102,-135 1102,-203 1424,-203 1424,-135 1102,-135"/>
</g>
<g id="clust52" class="cluster">
<title>cluster_SupabaseModule_exports</title>
<polygon fill="none" stroke="black" points="1286,-143 1286,-195 1416,-195 1416,-143 1286,-143"/>
</g>
<g id="clust54" class="cluster">
<title>cluster_SupabaseModule_providers</title>
<polygon fill="none" stroke="black" points="1110,-143 1110,-195 1278,-195 1278,-143 1110,-143"/>
</g>
<g id="clust55" class="cluster">
<title>cluster_UserModule</title>
<polygon fill="none" stroke="black" stroke-dasharray="1,5" points="804,-211 804,-279 1064,-279 1064,-211 804,-211"/>
</g>
<g id="clust58" class="cluster">
<title>cluster_UserModule_exports</title>
<polygon fill="none" stroke="black" points="952,-219 952,-271 1056,-271 1056,-219 952,-219"/>
</g>
<g id="clust60" class="cluster">
<title>cluster_UserModule_providers</title>
<polygon fill="none" stroke="black" points="812,-219 812,-271 944,-271 944,-219 812,-219"/>
</g>
<!-- AuthModule -->
<g id="node1" class="node">
<title>AuthModule</title>
<polygon fill="#8dd3c7" stroke="black" points="707.55,-263 704.55,-267 683.55,-267 680.55,-263 620.45,-263 620.45,-227 707.55,-227 707.55,-263"/>
<text text-anchor="middle" x="664" y="-240.8" font-family="Times,serif" font-size="14.00">AuthModule</text>
</g>
<!-- NotificationModule -->
<g id="node4" class="node">
<title>NotificationModule</title>
<polygon fill="#8dd3c7" stroke="black" points="707.7,-339 704.7,-343 683.7,-343 680.7,-339 580.3,-339 580.3,-303 707.7,-303 707.7,-339"/>
<text text-anchor="middle" x="644" y="-316.8" font-family="Times,serif" font-size="14.00">NotificationModule</text>
</g>
<!-- AuthModule&#45;&gt;NotificationModule -->
<g id="edge26" class="edge">
<title>AuthModule&#45;&gt;NotificationModule</title>
<path fill="none" stroke="black" d="M637.7,-263.01C637.7,-263.01 637.7,-292.85 637.7,-292.85"/>
<polygon fill="black" stroke="black" points="634.2,-292.85 637.7,-302.85 641.2,-292.85 634.2,-292.85"/>
</g>
<!-- AppModule -->
<g id="node10" class="node">
<title>AppModule</title>
<polygon fill="#8dd3c7" stroke="black" points="644.66,-556 641.66,-560 620.66,-560 617.66,-556 561.34,-556 561.34,-520 644.66,-520 644.66,-556"/>
<text text-anchor="middle" x="603" y="-533.8" font-family="Times,serif" font-size="14.00">AppModule</text>
</g>
<!-- AuthModule&#45;&gt;AppModule -->
<g id="edge1" class="edge">
<title>AuthModule&#45;&gt;AppModule</title>
<path fill="none" stroke="black" d="M707.7,-254C717.03,-254 724.14,-254 724.14,-254 724.14,-254 724.14,-529 724.14,-529 724.14,-529 654.69,-529 654.69,-529"/>
<polygon fill="black" stroke="black" points="654.69,-525.5 644.69,-529 654.69,-532.5 654.69,-525.5"/>
</g>
<!-- AuthService  -->
<g id="node12" class="node">
<title>AuthService </title>
<polygon fill="#fb8072" stroke="black" points="1183.98,-339 1094.02,-339 1094.02,-303 1183.98,-303 1183.98,-339"/>
<text text-anchor="middle" x="1139" y="-316.8" font-family="Times,serif" font-size="14.00">AuthService </text>
</g>
<!-- AuthModule&#45;&gt;AuthService  -->
<g id="edge13" class="edge">
<title>AuthModule&#45;&gt;AuthService </title>
<path fill="none" stroke="black" stroke-dasharray="5,2" d="M655.18,-263.11C655.18,-272.9 655.18,-283 655.18,-283 655.18,-283 1105.9,-283 1105.9,-283 1105.9,-283 1105.9,-292.89 1105.9,-292.89"/>
<polygon fill="black" stroke="black" points="1102.4,-292.89 1105.9,-302.89 1109.4,-292.89 1102.4,-292.89"/>
</g>
<!-- JwtStrategy  -->
<g id="node13" class="node">
<title>JwtStrategy </title>
<polygon fill="#fb8072" stroke="black" points="1287.6,-339 1202.4,-339 1202.4,-303 1287.6,-303 1287.6,-339"/>
<text text-anchor="middle" x="1245" y="-316.8" font-family="Times,serif" font-size="14.00">JwtStrategy </text>
</g>
<!-- AuthModule&#45;&gt;JwtStrategy  -->
<g id="edge14" class="edge">
<title>AuthModule&#45;&gt;JwtStrategy </title>
<path fill="none" stroke="black" stroke-dasharray="5,2" d="M672.65,-263.21C672.65,-268.55 672.65,-273 672.65,-273 672.65,-273 1236.33,-273 1236.33,-273 1236.33,-273 1236.33,-292.85 1236.33,-292.85"/>
<polygon fill="black" stroke="black" points="1232.83,-292.85 1236.33,-302.85 1239.83,-292.85 1232.83,-292.85"/>
</g>
<!-- DashboardModule -->
<g id="node2" class="node">
<title>DashboardModule</title>
<polygon fill="#8dd3c7" stroke="black" points="510.19,-491 507.19,-495 486.19,-495 483.19,-491 389.81,-491 389.81,-455 510.19,-455 510.19,-491"/>
<text text-anchor="middle" x="450" y="-468.8" font-family="Times,serif" font-size="14.00">DashboardModule</text>
</g>
<!-- DashboardModule&#45;&gt;AppModule -->
<g id="edge2" class="edge">
<title>DashboardModule&#45;&gt;AppModule</title>
<path fill="none" stroke="black" d="M510.35,-479C539.95,-479 569.31,-479 569.31,-479 569.31,-479 569.31,-509.98 569.31,-509.98"/>
<polygon fill="black" stroke="black" points="565.81,-509.98 569.31,-519.98 572.81,-509.98 565.81,-509.98"/>
</g>
<!-- HospitalModule -->
<g id="node3" class="node">
<title>HospitalModule</title>
<polygon fill="#8dd3c7" stroke="black" points="492.49,-415 489.49,-419 468.49,-419 465.49,-415 385.51,-415 385.51,-379 492.49,-379 492.49,-415"/>
<text text-anchor="middle" x="439" y="-392.8" font-family="Times,serif" font-size="14.00">HospitalModule</text>
</g>
<!-- HospitalModule&#45;&gt;DashboardModule -->
<g id="edge17" class="edge">
<title>HospitalModule&#45;&gt;DashboardModule</title>
<path fill="none" stroke="black" d="M410.42,-415.01C410.42,-415.01 410.42,-444.85 410.42,-444.85"/>
<polygon fill="black" stroke="black" points="406.92,-444.85 410.42,-454.85 413.92,-444.85 406.92,-444.85"/>
</g>
<!-- HospitalModule&#45;&gt;AppModule -->
<g id="edge3" class="edge">
<title>HospitalModule&#45;&gt;AppModule</title>
<path fill="none" stroke="black" d="M451.46,-415.24C451.46,-430.57 451.46,-450 451.46,-450 451.46,-450 577.44,-450 577.44,-450 577.44,-450 577.44,-509.77 577.44,-509.77"/>
<polygon fill="black" stroke="black" points="573.94,-509.77 577.44,-519.77 580.94,-509.77 573.94,-509.77"/>
</g>
<!-- HospitalService  -->
<g id="node17" class="node">
<title>HospitalService </title>
<polygon fill="#fb8072" stroke="black" points="1098.42,-491 989.58,-491 989.58,-455 1098.42,-455 1098.42,-491"/>
<text text-anchor="middle" x="1044" y="-468.8" font-family="Times,serif" font-size="14.00">HospitalService </text>
</g>
<!-- HospitalModule&#45;&gt;HospitalService  -->
<g id="edge24" class="edge">
<title>HospitalModule&#45;&gt;HospitalService </title>
<path fill="none" stroke="black" stroke-dasharray="5,2" d="M471.98,-415.49C471.98,-427.14 471.98,-440 471.98,-440 471.98,-440 1005.6,-440 1005.6,-440 1005.6,-440 1005.6,-444.96 1005.6,-444.96"/>
<polygon fill="black" stroke="black" points="1002.1,-444.96 1005.6,-454.96 1009.1,-444.96 1002.1,-444.96"/>
</g>
<!-- NotificationModule&#45;&gt;HospitalModule -->
<g id="edge22" class="edge">
<title>NotificationModule&#45;&gt;HospitalModule</title>
<path fill="none" stroke="black" d="M580.2,-321C537.19,-321 488.26,-321 488.26,-321 488.26,-321 488.26,-368.99 488.26,-368.99"/>
<polygon fill="black" stroke="black" points="484.76,-368.99 488.26,-378.99 491.76,-368.99 484.76,-368.99"/>
</g>
<!-- RescueModule -->
<g id="node6" class="node">
<title>RescueModule</title>
<polygon fill="#8dd3c7" stroke="black" points="609.97,-415 606.97,-419 585.97,-419 582.97,-415 510.03,-415 510.03,-379 609.97,-379 609.97,-415"/>
<text text-anchor="middle" x="560" y="-392.8" font-family="Times,serif" font-size="14.00">RescueModule</text>
</g>
<!-- NotificationModule&#45;&gt;RescueModule -->
<g id="edge33" class="edge">
<title>NotificationModule&#45;&gt;RescueModule</title>
<path fill="none" stroke="black" d="M595.19,-339.01C595.19,-339.01 595.19,-368.85 595.19,-368.85"/>
<polygon fill="black" stroke="black" points="591.69,-368.85 595.19,-378.85 598.69,-368.85 591.69,-368.85"/>
</g>
<!-- SosModule -->
<g id="node7" class="node">
<title>SosModule</title>
<polygon fill="#8dd3c7" stroke="black" points="707.78,-415 704.78,-419 683.78,-419 680.78,-415 628.22,-415 628.22,-379 707.78,-379 707.78,-415"/>
<text text-anchor="middle" x="668" y="-392.8" font-family="Times,serif" font-size="14.00">SosModule</text>
</g>
<!-- NotificationModule&#45;&gt;SosModule -->
<g id="edge37" class="edge">
<title>NotificationModule&#45;&gt;SosModule</title>
<path fill="none" stroke="black" d="M659.91,-339.01C659.91,-339.01 659.91,-368.85 659.91,-368.85"/>
<polygon fill="black" stroke="black" points="656.41,-368.85 659.91,-378.85 663.41,-368.85 656.41,-368.85"/>
</g>
<!-- NotificationModule&#45;&gt;AppModule -->
<g id="edge4" class="edge">
<title>NotificationModule&#45;&gt;AppModule</title>
<path fill="none" stroke="black" d="M622.07,-339.13C622.07,-339.13 622.07,-509.77 622.07,-509.77"/>
<polygon fill="black" stroke="black" points="618.57,-509.77 622.07,-519.77 625.57,-509.77 618.57,-509.77"/>
</g>
<!-- NotificationGateway  -->
<g id="node19" class="node">
<title>NotificationGateway </title>
<polygon fill="#fb8072" stroke="black" points="1154.4,-415 1017.6,-415 1017.6,-379 1154.4,-379 1154.4,-415"/>
<text text-anchor="middle" x="1086" y="-392.8" font-family="Times,serif" font-size="14.00">NotificationGateway </text>
</g>
<!-- NotificationModule&#45;&gt;NotificationGateway  -->
<g id="edge28" class="edge">
<title>NotificationModule&#45;&gt;NotificationGateway </title>
<path fill="none" stroke="black" stroke-dasharray="5,2" d="M675.8,-339.19C675.8,-347.28 675.8,-355 675.8,-355 675.8,-355 1043.59,-355 1043.59,-355 1043.59,-355 1043.59,-368.94 1043.59,-368.94"/>
<polygon fill="black" stroke="black" points="1040.09,-368.94 1043.59,-378.94 1047.09,-368.94 1040.09,-368.94"/>
</g>
<!-- NotificationService  -->
<g id="node20" class="node">
<title>NotificationService </title>
<polygon fill="#fb8072" stroke="black" points="1301.63,-415 1172.37,-415 1172.37,-379 1301.63,-379 1301.63,-415"/>
<text text-anchor="middle" x="1237" y="-392.8" font-family="Times,serif" font-size="14.00">NotificationService </text>
</g>
<!-- NotificationModule&#45;&gt;NotificationService  -->
<g id="edge29" class="edge">
<title>NotificationModule&#45;&gt;NotificationService </title>
<path fill="none" stroke="black" stroke-dasharray="5,2" d="M691.7,-339.06C691.7,-343.49 691.7,-347 691.7,-347 691.7,-347 1178.09,-347 1178.09,-347 1178.09,-347 1178.09,-368.95 1178.09,-368.95"/>
<polygon fill="black" stroke="black" points="1174.59,-368.95 1178.09,-378.95 1181.59,-368.95 1174.59,-368.95"/>
</g>
<!-- PrismaModule -->
<g id="node5" class="node">
<title>PrismaModule</title>
<polygon fill="#8dd3c7" stroke="black" points="578.43,-122 575.43,-126 554.43,-126 551.43,-122 479.57,-122 479.57,-86 578.43,-86 578.43,-122"/>
<text text-anchor="middle" x="529" y="-99.8" font-family="Times,serif" font-size="14.00">PrismaModule</text>
</g>
<!-- PrismaModule&#45;&gt;AuthModule -->
<g id="edge11" class="edge">
<title>PrismaModule&#45;&gt;AuthModule</title>
<path fill="none" stroke="black" d="M561.17,-122.14C561.17,-160.23 561.17,-245 561.17,-245 561.17,-245 610.39,-245 610.39,-245"/>
<polygon fill="black" stroke="black" points="610.39,-248.5 620.39,-245 610.39,-241.5 610.39,-248.5"/>
</g>
<!-- PrismaModule&#45;&gt;DashboardModule -->
<g id="edge18" class="edge">
<title>PrismaModule&#45;&gt;DashboardModule</title>
<path fill="none" stroke="black" d="M498.33,-122.05C498.33,-122.05 498.33,-444.99 498.33,-444.99"/>
<polygon fill="black" stroke="black" points="494.83,-444.99 498.33,-454.99 501.83,-444.99 494.83,-444.99"/>
</g>
<!-- PrismaModule&#45;&gt;HospitalModule -->
<g id="edge23" class="edge">
<title>PrismaModule&#45;&gt;HospitalModule</title>
<path fill="none" stroke="black" d="M484.02,-122.33C484.02,-122.33 484.02,-368.68 484.02,-368.68"/>
<polygon fill="black" stroke="black" points="480.52,-368.68 484.02,-378.68 487.52,-368.68 480.52,-368.68"/>
</g>
<!-- PrismaModule&#45;&gt;NotificationModule -->
<g id="edge27" class="edge">
<title>PrismaModule&#45;&gt;NotificationModule</title>
<path fill="none" stroke="black" d="M578.34,-104C584.17,-104 588.1,-104 588.1,-104 588.1,-104 588.1,-292.87 588.1,-292.87"/>
<polygon fill="black" stroke="black" points="584.6,-292.87 588.1,-302.87 591.6,-292.87 584.6,-292.87"/>
</g>
<!-- PrismaModule&#45;&gt;RescueModule -->
<g id="edge34" class="edge">
<title>PrismaModule&#45;&gt;RescueModule</title>
<path fill="none" stroke="black" d="M535.59,-122.33C535.59,-122.33 535.59,-368.68 535.59,-368.68"/>
<polygon fill="black" stroke="black" points="532.09,-368.68 535.59,-378.68 539.09,-368.68 532.09,-368.68"/>
</g>
<!-- PrismaModule&#45;&gt;SosModule -->
<g id="edge38" class="edge">
<title>PrismaModule&#45;&gt;SosModule</title>
<path fill="none" stroke="black" d="M552.64,-122.21C552.64,-181.17 552.64,-363 552.64,-363 552.64,-363 644.01,-363 644.01,-363 644.01,-363 644.01,-368.81 644.01,-368.81"/>
<polygon fill="black" stroke="black" points="640.51,-368.81 644.01,-378.81 647.51,-368.81 640.51,-368.81"/>
</g>
<!-- UserModule -->
<g id="node9" class="node">
<title>UserModule</title>
<polygon fill="#8dd3c7" stroke="black" points="707.98,-187 704.98,-191 683.98,-191 680.98,-187 622.02,-187 622.02,-151 707.98,-151 707.98,-187"/>
<text text-anchor="middle" x="665" y="-164.8" font-family="Times,serif" font-size="14.00">UserModule</text>
</g>
<!-- PrismaModule&#45;&gt;UserModule -->
<g id="edge43" class="edge">
<title>PrismaModule&#45;&gt;UserModule</title>
<path fill="none" stroke="black" d="M569.69,-122.11C569.69,-141.34 569.69,-169 569.69,-169 569.69,-169 611.81,-169 611.81,-169"/>
<polygon fill="black" stroke="black" points="611.81,-172.5 621.81,-169 611.81,-165.5 611.81,-172.5"/>
</g>
<!-- PrismaModule&#45;&gt;AppModule -->
<g id="edge5" class="edge">
<title>PrismaModule&#45;&gt;AppModule</title>
<path fill="none" stroke="black" d="M544.11,-122.35C544.11,-182.67 544.11,-371 544.11,-371 544.11,-371 616.03,-371 616.03,-371 616.03,-371 616.03,-509.81 616.03,-509.81"/>
<polygon fill="black" stroke="black" points="612.53,-509.81 616.03,-519.81 619.53,-509.81 612.53,-509.81"/>
</g>
<!-- PrismaService  -->
<g id="node22" class="node">
<title>PrismaService </title>
<polygon fill="#fb8072" stroke="black" points="1078.36,-187 977.64,-187 977.64,-151 1078.36,-151 1078.36,-187"/>
<text text-anchor="middle" x="1028" y="-164.8" font-family="Times,serif" font-size="14.00">PrismaService </text>
</g>
<!-- PrismaModule&#45;&gt;PrismaService  -->
<g id="edge31" class="edge">
<title>PrismaModule&#45;&gt;PrismaService </title>
<path fill="none" stroke="black" stroke-dasharray="5,2" d="M518.54,-122.21C518.54,-127.55 518.54,-132 518.54,-132 518.54,-132 1028,-132 1028,-132 1028,-132 1028,-140.93 1028,-140.93"/>
<polygon fill="black" stroke="black" points="1024.5,-140.93 1028,-150.93 1031.5,-140.93 1024.5,-140.93"/>
</g>
<!-- RescueModule&#45;&gt;DashboardModule -->
<g id="edge19" class="edge">
<title>RescueModule&#45;&gt;DashboardModule</title>
<path fill="none" stroke="black" d="M509.73,-397C506.3,-397 504.17,-397 504.17,-397 504.17,-397 504.17,-444.99 504.17,-444.99"/>
<polygon fill="black" stroke="black" points="500.67,-444.99 504.17,-454.99 507.67,-444.99 500.67,-444.99"/>
</g>
<!-- RescueModule&#45;&gt;AppModule -->
<g id="edge6" class="edge">
<title>RescueModule&#45;&gt;AppModule</title>
<path fill="none" stroke="black" d="M601.85,-415.14C601.85,-415.14 601.85,-509.93 601.85,-509.93"/>
<polygon fill="black" stroke="black" points="598.35,-509.92 601.85,-519.93 605.35,-509.93 598.35,-509.92"/>
</g>
<!-- RescueService  -->
<g id="node24" class="node">
<title>RescueService </title>
<polygon fill="#fb8072" stroke="black" points="1399.9,-491 1298.1,-491 1298.1,-455 1399.9,-455 1399.9,-491"/>
<text text-anchor="middle" x="1349" y="-468.8" font-family="Times,serif" font-size="14.00">RescueService </text>
</g>
<!-- RescueModule&#45;&gt;RescueService  -->
<g id="edge35" class="edge">
<title>RescueModule&#45;&gt;RescueService </title>
<path fill="none" stroke="black" stroke-dasharray="5,2" d="M585.58,-415.04C585.58,-422.75 585.58,-430 585.58,-430 585.58,-430 1350.76,-430 1350.76,-430 1350.76,-430 1350.76,-444.51 1350.76,-444.51"/>
<polygon fill="black" stroke="black" points="1347.26,-444.51 1350.76,-454.51 1354.26,-444.51 1347.26,-444.51"/>
</g>
<!-- SosModule&#45;&gt;DashboardModule -->
<g id="edge20" class="edge">
<title>SosModule&#45;&gt;DashboardModule</title>
<path fill="none" stroke="black" d="M633.68,-415.03C633.68,-435.77 633.68,-467 633.68,-467 633.68,-467 520.14,-467 520.14,-467"/>
<polygon fill="black" stroke="black" points="520.14,-463.5 510.14,-467 520.14,-470.5 520.14,-463.5"/>
</g>
<!-- SosModule&#45;&gt;AppModule -->
<g id="edge7" class="edge">
<title>SosModule&#45;&gt;AppModule</title>
<path fill="none" stroke="black" d="M639.26,-415.14C639.26,-415.14 639.26,-509.93 639.26,-509.93"/>
<polygon fill="black" stroke="black" points="635.76,-509.92 639.26,-519.93 642.76,-509.93 635.76,-509.92"/>
</g>
<!-- SosService  -->
<g id="node26" class="node">
<title>SosService </title>
<polygon fill="#fb8072" stroke="black" points="1653.71,-491 1572.29,-491 1572.29,-455 1653.71,-455 1653.71,-491"/>
<text text-anchor="middle" x="1613" y="-468.8" font-family="Times,serif" font-size="14.00">SosService </text>
</g>
<!-- SosModule&#45;&gt;SosService  -->
<g id="edge39" class="edge">
<title>SosModule&#45;&gt;SosService </title>
<path fill="none" stroke="black" stroke-dasharray="5,2" d="M665.85,-415.12C665.85,-417.97 665.85,-420 665.85,-420 665.85,-420 1613,-420 1613,-420 1613,-420 1613,-444.76 1613,-444.76"/>
<polygon fill="black" stroke="black" points="1609.5,-444.76 1613,-454.76 1616.5,-444.76 1609.5,-444.76"/>
</g>
<!-- SupabaseModule -->
<g id="node8" class="node">
<title>SupabaseModule</title>
<polygon fill="#8dd3c7" stroke="black" points="708.42,-122 705.42,-126 684.42,-126 681.42,-122 595.58,-122 595.58,-86 708.42,-86 708.42,-122"/>
<text text-anchor="middle" x="652" y="-99.8" font-family="Times,serif" font-size="14.00">SupabaseModule</text>
</g>
<!-- SupabaseModule&#45;&gt;AppModule -->
<g id="edge8" class="edge">
<title>SupabaseModule&#45;&gt;AppModule</title>
<path fill="none" stroke="black" d="M708.26,-113C732.76,-113 755.99,-113 755.99,-113 755.99,-113 755.99,-547 755.99,-547 755.99,-547 654.81,-547 654.81,-547"/>
<polygon fill="black" stroke="black" points="654.81,-543.5 644.81,-547 654.81,-550.5 654.81,-543.5"/>
</g>
<!-- SupabaseService  -->
<g id="node28" class="node">
<title>SupabaseService </title>
<polygon fill="#fb8072" stroke="black" points="1408.35,-187 1293.65,-187 1293.65,-151 1408.35,-151 1408.35,-187"/>
<text text-anchor="middle" x="1351" y="-164.8" font-family="Times,serif" font-size="14.00">SupabaseService </text>
</g>
<!-- SupabaseModule&#45;&gt;SupabaseService  -->
<g id="edge41" class="edge">
<title>SupabaseModule&#45;&gt;SupabaseService </title>
<path fill="none" stroke="black" stroke-dasharray="5,2" d="M708.31,-95C874.45,-95 1351,-95 1351,-95 1351,-95 1351,-140.71 1351,-140.71"/>
<polygon fill="black" stroke="black" points="1347.5,-140.71 1351,-150.71 1354.5,-140.71 1347.5,-140.71"/>
</g>
<!-- UserModule&#45;&gt;AuthModule -->
<g id="edge12" class="edge">
<title>UserModule&#45;&gt;AuthModule</title>
<path fill="none" stroke="black" d="M650.6,-187.01C650.6,-187.01 650.6,-216.85 650.6,-216.85"/>
<polygon fill="black" stroke="black" points="647.1,-216.85 650.6,-226.85 654.1,-216.85 647.1,-216.85"/>
</g>
<!-- UserModule&#45;&gt;AppModule -->
<g id="edge9" class="edge">
<title>UserModule&#45;&gt;AppModule</title>
<path fill="none" stroke="black" d="M708.23,-175C724.92,-175 740.06,-175 740.06,-175 740.06,-175 740.06,-538 740.06,-538 740.06,-538 654.87,-538 654.87,-538"/>
<polygon fill="black" stroke="black" points="654.87,-534.5 644.87,-538 654.87,-541.5 654.87,-534.5"/>
</g>
<!-- UserService  -->
<g id="node30" class="node">
<title>UserService </title>
<polygon fill="#fb8072" stroke="black" points="1047.9,-263 960.1,-263 960.1,-227 1047.9,-227 1047.9,-263"/>
<text text-anchor="middle" x="1004" y="-240.8" font-family="Times,serif" font-size="14.00">UserService </text>
</g>
<!-- UserModule&#45;&gt;UserService  -->
<g id="edge44" class="edge">
<title>UserModule&#45;&gt;UserService </title>
<path fill="none" stroke="black" stroke-dasharray="5,2" d="M679.19,-187.11C679.19,-196.9 679.19,-207 679.19,-207 679.19,-207 968.93,-207 968.93,-207 968.93,-207 968.93,-216.89 968.93,-216.89"/>
<polygon fill="black" stroke="black" points="965.43,-216.89 968.93,-226.89 972.43,-216.89 965.43,-216.89"/>
</g>
<!-- AppService -->
<g id="node11" class="node">
<title>AppService</title>
<ellipse fill="#fdb462" stroke="black" cx="285" cy="-473" rx="56.74" ry="18"/>
<text text-anchor="middle" x="285" y="-468.8" font-family="Times,serif" font-size="14.00">AppService</text>
</g>
<!-- AppService&#45;&gt;AppModule -->
<g id="edge10" class="edge">
<title>AppService&#45;&gt;AppModule</title>
<path fill="none" stroke="black" d="M285,-491.11C285,-510.34 285,-538 285,-538 285,-538 551.1,-538 551.1,-538"/>
<polygon fill="black" stroke="black" points="551.1,-541.5 561.1,-538 551.1,-534.5 551.1,-541.5"/>
</g>
<!-- AuthService -->
<g id="node14" class="node">
<title>AuthService</title>
<ellipse fill="#fdb462" stroke="black" cx="879" cy="-321" rx="59.11" ry="18"/>
<text text-anchor="middle" x="879" y="-316.8" font-family="Times,serif" font-size="14.00">AuthService</text>
</g>
<!-- AuthService&#45;&gt;AuthModule -->
<g id="edge15" class="edge">
<title>AuthService&#45;&gt;AuthModule</title>
<path fill="none" stroke="black" d="M823.09,-315C804.22,-315 787.84,-315 787.84,-315 787.84,-315 787.84,-245 787.84,-245 787.84,-245 717.66,-245 717.66,-245"/>
<polygon fill="black" stroke="black" points="717.66,-241.5 707.66,-245 717.66,-248.5 717.66,-241.5"/>
</g>
<!-- JwtStrategy -->
<g id="node15" class="node">
<title>JwtStrategy</title>
<ellipse fill="#fdb462" stroke="black" cx="1013" cy="-321" rx="56.76" ry="18"/>
<text text-anchor="middle" x="1013" y="-316.8" font-family="Times,serif" font-size="14.00">JwtStrategy</text>
</g>
<!-- JwtStrategy&#45;&gt;AuthModule -->
<g id="edge16" class="edge">
<title>JwtStrategy&#45;&gt;AuthModule</title>
<path fill="none" stroke="black" d="M1004,-303.11C1004,-297.62 1004,-293 1004,-293 1004,-293 690.12,-293 690.12,-293 690.12,-293 690.12,-273.15 690.12,-273.15"/>
<polygon fill="black" stroke="black" points="693.63,-273.15 690.12,-263.15 686.63,-273.15 693.63,-273.15"/>
</g>
<!-- DashboardService -->
<g id="node16" class="node">
<title>DashboardService</title>
<ellipse fill="#fdb462" stroke="black" cx="106" cy="-397" rx="81.64" ry="18"/>
<text text-anchor="middle" x="106" y="-392.8" font-family="Times,serif" font-size="14.00">DashboardService</text>
</g>
<!-- DashboardService&#45;&gt;DashboardModule -->
<g id="edge21" class="edge">
<title>DashboardService&#45;&gt;DashboardModule</title>
<path fill="none" stroke="black" d="M187.85,-397C263.27,-397 363.56,-397 363.56,-397 363.56,-397 363.56,-473 363.56,-473 363.56,-473 379.5,-473 379.5,-473"/>
<polygon fill="black" stroke="black" points="379.5,-476.5 389.5,-473 379.5,-469.5 379.5,-476.5"/>
</g>
<!-- HospitalService -->
<g id="node18" class="node">
<title>HospitalService</title>
<ellipse fill="#fdb462" stroke="black" cx="893" cy="-473" rx="72.93" ry="18"/>
<text text-anchor="middle" x="893" y="-468.8" font-family="Times,serif" font-size="14.00">HospitalService</text>
</g>
<!-- HospitalService&#45;&gt;HospitalModule -->
<g id="edge25" class="edge">
<title>HospitalService&#45;&gt;HospitalModule</title>
<path fill="none" stroke="black" d="M893.03,-454.79C893.03,-449.45 893.03,-445 893.03,-445 893.03,-445 430.94,-445 430.94,-445 430.94,-445 430.94,-425.15 430.94,-425.15"/>
<polygon fill="black" stroke="black" points="434.44,-425.15 430.94,-415.15 427.44,-425.15 434.44,-425.15"/>
</g>
<!-- NotificationService -->
<g id="node21" class="node">
<title>NotificationService</title>
<ellipse fill="#fdb462" stroke="black" cx="907" cy="-397" rx="86.81" ry="18"/>
<text text-anchor="middle" x="907" y="-392.8" font-family="Times,serif" font-size="14.00">NotificationService</text>
</g>
<!-- NotificationService&#45;&gt;NotificationModule -->
<g id="edge30" class="edge">
<title>NotificationService&#45;&gt;NotificationModule</title>
<path fill="none" stroke="black" d="M820.3,-397C794,-397 771.92,-397 771.92,-397 771.92,-397 771.92,-327 771.92,-327 771.92,-327 717.96,-327 717.96,-327"/>
<polygon fill="black" stroke="black" points="717.96,-323.5 707.96,-327 717.96,-330.5 717.96,-323.5"/>
</g>
<!-- PrismaService -->
<g id="node23" class="node">
<title>PrismaService</title>
<ellipse fill="#fdb462" stroke="black" cx="887" cy="-169" rx="66.63" ry="18"/>
<text text-anchor="middle" x="887" y="-164.8" font-family="Times,serif" font-size="14.00">PrismaService</text>
</g>
<!-- PrismaService&#45;&gt;PrismaModule -->
<g id="edge32" class="edge">
<title>PrismaService&#45;&gt;PrismaModule</title>
<path fill="none" stroke="black" d="M887,-150.84C887,-145.96 887,-142 887,-142 887,-142 527.06,-142 527.06,-142 527.06,-142 527.06,-132.11 527.06,-132.11"/>
<polygon fill="black" stroke="black" points="530.56,-132.11 527.06,-122.11 523.56,-132.11 530.56,-132.11"/>
</g>
<!-- RescueService -->
<g id="node25" class="node">
<title>RescueService</title>
<ellipse fill="#fdb462" stroke="black" cx="1206" cy="-473" rx="67.75" ry="18"/>
<text text-anchor="middle" x="1206" y="-468.8" font-family="Times,serif" font-size="14.00">RescueService</text>
</g>
<!-- RescueService&#45;&gt;RescueModule -->
<g id="edge36" class="edge">
<title>RescueService&#45;&gt;RescueModule</title>
<path fill="none" stroke="black" d="M1146.29,-464.19C1146.29,-452.96 1146.29,-435 1146.29,-435 1146.29,-435 593.72,-435 593.72,-435 593.72,-435 593.72,-425.11 593.72,-425.11"/>
<polygon fill="black" stroke="black" points="597.22,-425.11 593.72,-415.11 590.22,-425.11 597.22,-425.11"/>
</g>
<!-- SosService -->
<g id="node27" class="node">
<title>SosService</title>
<ellipse fill="#fdb462" stroke="black" cx="1494" cy="-473" rx="53.89" ry="18"/>
<text text-anchor="middle" x="1494" y="-468.8" font-family="Times,serif" font-size="14.00">SosService</text>
</g>
<!-- SosService&#45;&gt;SosModule -->
<g id="edge40" class="edge">
<title>SosService&#45;&gt;SosModule</title>
<path fill="none" stroke="black" d="M1494,-454.85C1494,-441.26 1494,-425 1494,-425 1494,-425 686.87,-425 686.87,-425 686.87,-425 686.87,-424.02 686.87,-424.02"/>
<polygon fill="black" stroke="black" points="690.37,-425.21 686.87,-415.21 683.37,-425.21 690.37,-425.21"/>
</g>
<!-- SupabaseService -->
<g id="node29" class="node">
<title>SupabaseService</title>
<ellipse fill="#fdb462" stroke="black" cx="1194" cy="-169" rx="76.42" ry="18"/>
<text text-anchor="middle" x="1194" y="-164.8" font-family="Times,serif" font-size="14.00">SupabaseService</text>
</g>
<!-- SupabaseService&#45;&gt;SupabaseModule -->
<g id="edge42" class="edge">
<title>SupabaseService&#45;&gt;SupabaseModule</title>
<path fill="none" stroke="black" d="M1194,-150.89C1194,-131.66 1194,-104 1194,-104 1194,-104 718.22,-104 718.22,-104"/>
<polygon fill="black" stroke="black" points="718.22,-100.5 708.22,-104 718.22,-107.5 718.22,-100.5"/>
</g>
<!-- UserService -->
<g id="node31" class="node">
<title>UserService</title>
<ellipse fill="#fdb462" stroke="black" cx="878" cy="-245" rx="58.44" ry="18"/>
<text text-anchor="middle" x="878" y="-240.8" font-family="Times,serif" font-size="14.00">UserService</text>
</g>
<!-- UserService&#45;&gt;UserModule -->
<g id="edge45" class="edge">
<title>UserService&#45;&gt;UserModule</title>
<path fill="none" stroke="black" d="M827.26,-236C814.21,-236 803.77,-236 803.77,-236 803.77,-236 803.77,-163 803.77,-163 803.77,-163 718.15,-163 718.15,-163"/>
<polygon fill="black" stroke="black" points="718.15,-159.5 708.15,-163 718.15,-166.5 718.15,-159.5"/>
</g>
</g>
</svg>
